<!-- <?xml version="1.0" encoding="UTF-8" standalone="no"?>
<svg width="90" height="30" viewBox="0 0 300 101.4910110983811" class="css-1j8o68f" version="1.1" id="svg12"
    sodipodi:docname="logo.svg" xmlns:inkscape="http://www.inkscape.org/namespaces/inkscape"
    xmlns:sodipodi="http://sodipodi.sourceforge.net/DTD/sodipodi-0.dtd" xmlns="http://www.w3.org/2000/svg"
    xmlns:svg="http://www.w3.org/2000/svg">
    <sodipodi:namedview id="namedview14" pagecolor="#ffffff" bordercolor="#000000" borderopacity="0.25"
        inkscape:showpageshadow="2" inkscape:pageopacity="0.0" inkscape:pagecheckerboard="0"
        inkscape:deskcolor="#d1d1d1" />
    <defs id="SvgjsDefs10989">
        <linearGradient id="SvgjsLinearGradient10994">
            <stop id="SvgjsStop10995" stop-color="#ef4136" offset="0" />
            <stop id="SvgjsStop10996" stop-color="#fbb040" offset="1" />
        </linearGradient>
    </defs>
    <g id="SvgjsG10990" featurekey="hmhgWD-0"
        transform="matrix(0.8277789588550654,0,0,0.8277789588550654,-1.4980845825363693,20.448785234598923)"
        fill="url(#SvgjsLinearGradient10994)">
        <path
            d="m59.5 3.082c-4.7954 0-8.6018 4.1599-8.7461 9.1934a1.2501 1.2501 0 0 0-0.009765 0.16016v0.050781 0.001953c-2.12e-4 0.026968-0.003907 0.053064-0.003907 0.080078a1.2501 1.2501 0 0 0 0.003907 0.125l-0.011719 6.0625a1.2501 1.2501 0 0 0 0.027344 0.26953 1.2501 1.2501 0 0 0 0 0.005859c0.087637 2.7858 1.0895 5.3422 2.709 7.3086-1.6974 2.0334-2.7228 4.7069-2.7539 7.625a1.2501 1.2501 0 0 0-0.011719 0.17969l-0.041016 21.643a1.2501 1.2501 0 0 0 0 0.007813c-3.4e-5 0.002635 3.3e-5 0.005177 0 0.007812v0.16406a1.2501 1.2501 0 0 0 0.017579 0.21484 1.2501 1.2501 0 0 0 0 0.007812c0.057898 3.2162 1.3128 6.1365 3.3555 8.2129-2.1126 2.1347-3.3999 5.1769-3.3984 8.4844v0.001953a1.2501 1.2501 0 0 0-0.00586 0.12109l-0.029297 15.393a1.2501 1.2501 0 0 0 0 0.013672c0 0.001972-1e-6 0.003887 0 0.005859v0.15625a1.2501 1.2501 0 0 0 0.017579 0.22461c0.18879 4.9911 3.9767 9.0996 8.7422 9.0996 2.987 0 5.5892-1.6178 7.166-4.0508 0.49243 0.23417 0.9998 0.44246 1.5371 0.5918 5.3933 1.499 10.865-2.1252 12.193-7.873 0.053852-0.23304 0.089647-0.46595 0.12891-0.69922 4.8266 1.8209 10.372-0.26462 13.033-5.1699 2.1169-3.9026 1.9514-8.5589-0.076172-12.191 1.3914-1.2473 2.581-2.8037 3.4707-4.6309 3.3427-6.8652 1.4167-15.253-4.334-19.629 0.70633-1.5495 1.1191-3.2793 1.1191-5.1152 0-5.6542-3.7885-10.445-8.8418-11.391 2.1119-5.4422 0.60659-11.91-4.0059-15.543-2.6745-2.1063-5.9142-2.8138-8.9609-2.2676-1.2602 0.22595-2.4824 0.67769-3.623 1.3223-0.59124-4.5628-4.2009-8.1738-8.668-8.1738zm-10.766 0.017578a47.453 47.453 0 0 0-8.9395 0.92773l0.005859 0.0039062 0.001953 0.0019531a9.2641 9.2641 0 0 1 0.11133 0.23828l0.025391 0.0625a9.2641 9.2641 0 0 1-4.9727 12.109 9.2641 9.2641 0 0 1-12.115-4.9512 9.2641 9.2641 0 0 1-0.12109-0.32813 47.453 47.453 0 0 0-12.898 12.963 9.2641 9.2641 0 0 1 4.4355 4.6738l0.027344 0.064453a9.2641 9.2641 0 0 1-4.9727 12.107 9.2641 9.2641 0 0 1-6.5742 0.21289 47.453 47.453 0 0 0-0.013672 18.713 9.2641 9.2641 0 0 1 0.29492-0.13867 9.2641 9.2641 0 0 1 12.133 4.9062l0.027344 0.064453a9.2641 9.2641 0 0 1-4.9727 12.105 9.2641 9.2641 0 0 1-0.36328 0.13086 47.453 47.453 0 0 0 13.203 13.094 9.2641 9.2641 0 0 1 4.8867-4.8418 9.2641 9.2641 0 0 1 12.135 4.9062l0.027344 0.064453a9.2641 9.2641 0 0 1 0.089843 6.8691 47.453 47.453 0 0 0 8.5391 0.82617v-27.98a19.424 19.424 0 0 1-17.408-11.857 19.424 19.424 0 0 1 10.332-25.426 19.424 19.424 0 0 1 7.0762-1.5098v-28.012zm10.766 2.4824c3.4072 0 6.2617 3.053 6.2617 6.9863a1.2501 1.2501 0 0 0 0.068359 0.42188c-0.67761 0.64432-1.3023 1.3704-1.8438 2.1973a1.2501 1.2501 0 1 0 2.0918 1.3691c3.0922-4.7225 8.867-5.7476 13.127-2.3926 4.26 3.3551 5.2719 10.002 2.1797 14.725-1.7581 2.685-4.3992 4.1445-7.1191 4.3145-0.27291 0.017055-0.54662 0.005076-0.82031-0.003906-0.062252-2.9053-1.1925-5.7721-3.3672-7.8633 1.2273-1.8688 1.9613-4.1383 1.9844-6.5801a1.2501 1.2501 0 1 0-2.5-0.02539c-0.04812 5.0843-3.7875 9.0274-8.2441 8.9766-4.4567-0.05072-8.1262-4.0817-8.0781-9.166a1.2501 1.2501 0 0 0-0.003906-0.125 1.2501 1.2501 0 0 0-0.003906-0.025391l0.009766-5.293 0.001953-0.61328c0.040801-3.8921 2.8733-6.9023 6.2559-6.9023zm8.9727 21.689c3.0118 3.0375 3.31 8.2896 0.59375 11.713-0.21591 0.27211-0.44244 0.52386-0.67969 0.75586-0.10769 0.1053-0.22439 0.19194-0.33594 0.28906-0.086855-0.12389-0.16615-0.25328-0.25781-0.37305-1.634-2.1351-4.022-3.6007-6.7988-3.8711a1.2501 1.2501 0 0 0-0.12305-0.007812 1.2501 1.2501 0 0 0-0.11914 2.4961c4.0811 0.39739 7.2021 4.4018 6.8242 9.0703-0.0591 0.72993-0.20041 1.4268-0.41211 2.082a1.2501 1.2501 0 1 0 2.3789 0.76758c0.2711-0.83907 0.45073-1.7263 0.52539-2.6484 0.15063-1.8607-0.14637-3.6635-0.79492-5.2773 0.63285-0.49362 1.2236-1.0671 1.75-1.7305 1.1421-1.4394 1.8757-3.1061 2.2148-4.8359 2.9143 0.12748 5.8217-0.90486 8.1113-2.957 0.19783-0.17731 0.38991-0.36236 0.57812-0.55469 0.56465-0.57699 1.0849-1.2211 1.5488-1.9297 0.034627-0.052882 0.061903-0.10887 0.095704-0.16211 4.1677 0.35822 7.5273 4.1967 7.5273 9.0371 0 1.307-0.24752 2.5439-0.69141 3.6602-0.017191 0.043229-0.040819 0.082136-0.058594 0.125-1.5001-0.76234-3.0712-1.2304-4.6504-1.3867-1.5298-0.15143-3.0592-0.013706-4.5293 0.36719-0.47561-1.3299-1.3718-2.4987-2.6387-3.2598a1.2501 1.2501 0 0 0-0.71484-0.18555 1.2501 1.2501 0 0 0-0.57226 2.3281c1.6485 0.9904 2.3201 3.4028 1.3711 5.3027-0.14842 0.29716-0.3239 0.56032-0.51953 0.78906a1.2501 1.2501 0 1 0 1.9004 1.623c0.32995-0.38581 0.61759-0.81864 0.85547-1.2949 0.44872-0.89837 0.67358-1.8621 0.70313-2.8184 2.6822-0.76622 5.597-0.48962 8.2539 1.0664 5.6123 3.2869 7.8014 11.083 4.7578 17.334-1.5086 3.0983-3.9802 5.1965-6.7539 6.1426-1.2483 0.42579-2.4849 0.31192-3.8145-0.38281s-2.7206-2.0138-3.9766-3.9766a1.2501 1.2501 0 0 0-0.019531-0.029297c1.7522-1.3864 2.9222-3.5826 3.0254-6.0586a1.2501 1.2501 0 0 0-1.2148-1.3184 1.2501 1.2501 0 0 0-1.2832 1.2148c-0.12845 3.0812-2.4391 5.3233-5.0703 5.1914-0.41125-0.02064-0.80548-0.09809-1.1816-0.22461a1.2507 1.2507 0 1 0-0.79688 2.3711c0.588 0.19777 1.2107 0.31734 1.8535 0.34961 0.86599 0.043403 1.6969-0.084848 2.4766-0.3418a1.2501 1.2501 0 0 0 0.10547 0.19336c1.4302 2.2349 3.0888 3.8869 4.9238 4.8457 1.835 0.95884 3.8784 1.1816 5.7793 0.5332 0.93235-0.31802 1.8283-0.75112 2.6816-1.2734 1.4592 2.8421 1.5563 6.4733-0.078125 9.4863-2.2679 4.1809-6.834 5.6463-10.688 3.707-0.27143-4.508-3.128-8.5442-7.4258-9.7754 0.33942-2.0744-0.08175-4.2857-1.3359-6.1172a1.2501 1.2501 0 0 0-1.0625-0.55859 1.2501 1.2501 0 0 0-1.2168 1.4297 1.2501 1.2501 0 0 0 0.023437 0.12305 1.2501 1.2501 0 0 0 0.19141 0.41797c1.6558 2.418 1.1868 5.9276-0.97852 7.7109-0.33865 0.27891-0.69368 0.49861-1.0586 0.66406a1.2501 1.2501 0 1 0 1.0312 2.2754c0.56705-0.2571 1.1121-0.59378 1.6172-1.0098 0.86752-0.71452 1.5403-1.5927 2.0234-2.5586a1.2501 1.2501 0 0 0 0.023438 0.007813c3.9829 1.107 6.5011 5.6483 5.4531 10.184-0.78599 3.4014-3.2629 5.7129-6.1328 6.1895-0.23916 0.039714-0.48075 0.068246-0.72461 0.082031-0.48771 0.02757-0.98493 0.001255-1.4824-0.080078-0.24874-0.040667-0.49716-0.094874-0.74609-0.16406-0.3951-0.10981-0.76794-0.26313-1.1309-0.43555 0.33133-1.0002 0.51953-2.0701 0.51953-3.1836a1.2501 1.2501 0 0 0-2.498-0.087891 1.2501 1.2501 0 0 0-0.001953 0.087891c0 3.6875-2.5098 6.6014-5.6309 6.9512-0.20807 0.02332-0.41791 0.035156-0.63086 0.035156-3.4055 0-6.2569-3.05-6.2598-6.9805-1e-6 -0.001978 0-0.003881 0-0.005859l0.029297-14.947a1.2502 1.2502 0 0 0 0.001953-0.1543c-0.21569-4.9996 3.2118-9.1249 7.5664-9.4727 0.47724 1.2923 1.27 2.4714 2.3789 3.3848 0.50509 0.41599 1.0482 0.75462 1.6152 1.0117a1.2501 1.2501 0 1 0 1.0312-2.2773c-0.36489-0.16544-0.71994-0.38515-1.0586-0.66406-2.1653-1.7834-2.6343-5.2929-0.97852-7.7109a1.2501 1.2501 0 0 0-1.041-1.9707 1.2501 1.2501 0 0 0-1.0215 0.55859c-1.0728 1.5666-1.5368 3.4117-1.4375 5.2109-1.5174 0.16902-2.9282 0.67354-4.1758 1.4473-1.7559-1.6797-2.8867-4.186-2.8496-7.0039l0.019532-10.695 0.021484-10.838a1.2501 1.2501 0 0 0 0.001953-0.09961c-0.02238-2.3545 0.76481-4.4926 2.0527-6.1074 1.701 1.3079 3.7733 2.0934 6.0312 2.1191 2.7709 0.031636 5.2801-1.0945 7.1836-2.9355z"
            id="path6" />
    </g>
    <g id="SvgjsG10991" featurekey="1RRcwp-0"
        transform="matrix(4.139081369744399,0,0,4.139081369744399,97.59891273009414,7.235048519070212)" fill="#000000">
        <path
            d="M3.94 13.620000000000001 c-0.42666 -0.17334 -0.82332 -0.36666 -1.19 -0.58 s-0.68332 -0.47 -0.94998 -0.77 s-0.47332 -0.65334 -0.61998 -1.06 s-0.22 -0.89 -0.22 -1.45 c0 -0.69334 0.12 -1.3033 0.36 -1.83 s0.57666 -0.97 1.01 -1.33 s0.95668 -0.63334 1.57 -0.82 s1.2933 -0.28 2.04 -0.28 c0.61334 0 1.24 0.06334 1.88 0.19 s1.4067 0.34332 2.3 0.64998 l-1.36 2.44 c-0.86666 -0.41334 -1.78 -0.62 -2.74 -0.62 c-0.18666 0 -0.38 0.02 -0.58 0.06 s-0.38 0.11 -0.54 0.21 s-0.29334 0.23666 -0.4 0.41 s-0.16 0.4 -0.16 0.68 c0 0.22666 0.04334 0.41332 0.13 0.55998 s0.19666 0.27332 0.33 0.37998 s0.28668 0.19666 0.46002 0.27 s0.34668 0.14334 0.52002 0.21 l1.18 0.46 c0.50666 0.2 0.97 0.41 1.39 0.63 s0.77666 0.48666 1.07 0.8 s0.52 0.69668 0.68 1.15 s0.24 1.02 0.24 1.7 s-0.12334 1.3 -0.37 1.86 s-0.60666 1.0367 -1.08 1.43 s-1.0567 0.7 -1.75 0.92 s-1.4867 0.33 -2.38 0.33 c-0.41334 0 -0.79334 -0.01334 -1.14 -0.04 s-0.68332 -0.07332 -1.01 -0.13998 s-0.65332 -0.14666 -0.97998 -0.24 s-0.67666 -0.21334 -1.05 -0.36 l0.68 -2.8 c0.54666 0.14666 1.0833 0.27666 1.61 0.39 s1.0633 0.17 1.61 0.17 c0.73334 0 1.2933 -0.09666 1.68 -0.29 s0.61332 -0.56334 0.67998 -1.11 c0.02666 -0.28 -0.0066796 -0.51334 -0.10002 -0.7 s-0.22668 -0.34332 -0.40002 -0.46998 s-0.36668 -0.23 -0.58002 -0.31 l-0.64 -0.24 z M12.02 9.56 l3.04 -0.000039062 l0 5.44 c0 0.46666 0.04 0.85666 0.12 1.17 s0.2 0.56 0.36 0.74 s0.35666 0.30666 0.59 0.38 s0.51 0.11 0.83 0.11 c0.38666 0 0.73332 -0.02 1.04 -0.06 l-0.04 -0.36 l0 -7.42 l3.04 0 l0 9.88 c-0.49334 0.17334 -1.0833 0.32668 -1.77 0.46002 s-1.39 0.2 -2.11 0.2 c-0.68 0 -1.33 -0.05334 -1.95 -0.16 s-1.1633 -0.33332 -1.63 -0.67998 s-0.83666 -0.85 -1.11 -1.51 s-0.41 -1.55 -0.41 -2.67 l0 -5.52 z M23.52 12.04 l-1.66 0 l1.32 -2.48 l2.9 0 l0.24 1.12 c0.30666 -0.34666 0.68332 -0.63 1.13 -0.85 s0.96332 -0.33 1.55 -0.33 c1.3733 0 2.3534 0.5 2.94 1.5 c0.33334 -0.46666 0.72668 -0.83332 1.18 -1.1 s1.02 -0.4 1.7 -0.4 c1.2 0 2.0766 0.31666 2.63 0.95 s0.83 1.6433 0.83 3.03 l0 6.52 l-3.04 0 l0 -5.98 c0 -0.64 -0.10334 -1.0933 -0.31 -1.36 s-0.56332 -0.4 -1.07 -0.4 c-0.21334 0 -0.41 0.02334 -0.59 0.07 s-0.33334 0.13332 -0.46 0.25998 s-0.22666 0.3 -0.3 0.52 s-0.11 0.51 -0.11 0.87 l0 6.02 l-3.04 0 l0 -6.02 c0 -0.66666 -0.11666 -1.12 -0.35 -1.36 s-0.55668 -0.36 -0.97002 -0.36 c-0.2 0 -0.38666 0.02 -0.56 0.06 s-0.33 0.12 -0.47 0.24 s-0.25 0.29334 -0.33 0.52 s-0.12 0.52666 -0.12 0.9 l0 6.02 l-3.04 0 l0 -7.96 z M44.32 17.38 l4.58 0 l0 2.62 l-8.46 0 l0 -2.26 l0.33 -0.37 l0.84 -0.94 l1.13 -1.26 l1.2 -1.33 l1.04 -1.16 l0.68 -0.74 l-0.32 0.1 l-2.32 0 l0 1.1 l-2.5 -0.76 l0 -2.82 l8.26 0 l0 2.36 z"
            id="path9" />
    </g>
</svg> -->

<svg version="1.1" id="Layer_1" xmlns="http://www.w3.org/2000/svg" xmlns:xlink="http://www.w3.org/1999/xlink" x="0px" y="0px"
	 width="100%" viewBox="0 0 496 496" enable-background="new 0 0 496 496" xml:space="preserve">
<path fill="#000000" opacity="1.000000" stroke="none" 
	d="
M1.000000,253.428467 
	C6.821050,251.085754 12.801932,251.927780 18.720676,252.099380 
	C21.148623,252.169769 22.704687,253.861465 22.702765,256.353119 
	C22.701216,258.361816 21.462284,260.075317 19.436613,260.108978 
	C13.541218,260.206970 7.579204,261.299866 1.382286,259.183746 
	C1.000000,257.285645 1.000000,255.571274 1.000000,253.428467 
z"/>
<path fill="#000000" opacity="1.000000" stroke="none" 
	d="
M266.563354,297.903137 
	C248.893585,307.617279 230.904526,307.826172 212.810059,300.851746 
	C202.573822,296.906219 196.202011,288.725250 192.876495,278.428345 
	C189.071991,266.648315 188.614258,254.584503 191.249069,242.472412 
	C194.861954,225.864075 205.345917,215.522141 221.401489,211.096130 
	C236.339813,206.978073 251.439194,207.337799 266.066864,212.709396 
	C278.713440,217.353455 287.734344,225.490814 289.684723,239.763123 
	C290.137024,243.072891 289.368835,244.427002 285.962860,244.380905 
	C278.635742,244.281723 271.306396,244.351181 263.978027,244.333694 
	C262.287140,244.329651 260.556030,244.309967 259.908112,242.255173 
	C257.978333,236.134888 253.046814,234.120682 247.396484,233.046356 
	C235.414337,230.768158 222.784714,235.512939 221.660278,250.666229 
	C221.213684,256.684692 221.075943,262.647736 222.585724,268.511902 
	C224.855255,277.326965 234.856613,283.074860 245.207718,281.483734 
	C248.812683,280.929596 252.435013,280.184265 255.475754,277.891663 
	C257.642853,276.257782 259.562653,274.489960 259.348938,270.871979 
	C254.333725,269.781952 249.204010,270.357269 244.165543,270.433746 
	C240.154678,270.494598 238.628342,269.301117 238.611618,265.066254 
	C238.554688,250.652496 238.407791,250.655151 253.021729,250.658417 
	C263.681305,250.660812 274.343170,250.781967 284.999329,250.590363 
	C288.928833,250.519699 290.262451,251.967300 290.226471,255.826447 
	C290.091370,270.315460 290.082275,284.807770 290.251892,299.296173 
	C290.298737,303.297577 288.734344,304.405090 284.934601,304.405182 
	C274.749695,304.405487 274.749695,304.549377 270.392334,296.304016 
	C268.856506,295.864868 267.994415,297.135315 266.563354,297.903137 
z"/>
<path fill="#000000" opacity="1.000000" stroke="none" 
	d="
M366.711578,302.577148 
	C357.539948,299.149536 350.248993,294.447296 348.343689,284.245850 
	C347.785309,281.256073 348.358582,279.722382 351.597260,279.733459 
	C357.926727,279.755066 364.256378,279.741150 370.585938,279.740509 
	C372.358185,279.740326 373.516541,280.237549 374.454254,282.102570 
	C377.797211,288.751495 389.097565,291.018585 394.810791,286.397888 
	C397.369598,284.328400 396.900208,281.679016 393.221741,280.553528 
	C388.477173,279.101868 383.517700,278.347260 378.644196,277.323730 
	C372.468048,276.026581 366.197388,275.089844 360.503845,272.094147 
	C353.742279,268.536499 349.843628,263.052887 349.793671,255.353226 
	C349.742157,247.414627 352.112793,240.107346 359.669586,236.493317 
	C377.195831,228.111359 394.994263,227.935608 412.463898,236.859985 
	C417.624512,239.496307 420.540009,244.155075 421.331940,250.014679 
	C421.713165,252.835632 421.013123,254.433044 417.709412,254.348557 
	C411.550232,254.191055 405.384277,254.286041 399.221222,254.301712 
	C397.472076,254.306152 396.202637,253.891876 395.075287,252.234589 
	C391.731659,247.319244 384.816132,245.831558 379.597076,248.613815 
	C378.360962,249.272781 377.316772,250.124252 377.437195,251.669281 
	C377.594543,253.688263 379.114563,254.480316 380.814117,254.817749 
	C387.490814,256.143341 394.183594,257.387970 400.870422,258.662689 
	C404.142242,259.286407 407.361847,260.049316 410.437653,261.402954 
	C418.834351,265.098389 423.664124,270.928284 423.429749,280.654938 
	C423.195190,290.388763 419.077362,297.301025 410.118042,300.983307 
	C396.028717,306.773895 381.617523,306.770264 366.711578,302.577148 
z"/>
<path fill="#000000" opacity="1.000000" stroke="none" 
	d="
M441.625458,273.999298 
	C441.620178,267.670197 441.497498,261.837677 441.656128,256.012787 
	C441.748505,252.619858 440.539978,250.887268 437.035736,251.365128 
	C432.035828,252.046951 430.434235,249.633728 430.983643,245.031525 
	C431.120880,243.882202 431.000122,242.702255 431.000427,241.536392 
	C431.002777,232.749237 430.990509,232.636322 439.492523,231.695526 
	C442.069061,231.410416 442.875519,229.877686 443.439423,227.911224 
	C444.814484,223.116425 446.246948,218.329529 447.361237,213.471802 
	C447.999481,210.689499 449.368713,209.567841 452.183624,209.652344 
	C456.510010,209.782227 460.847351,209.802979 465.172150,209.649033 
	C468.528473,209.529556 469.504089,211.110474 469.393036,214.201843 
	C469.237671,218.526642 469.470428,222.865417 469.312653,227.190033 
	C469.199402,230.293823 470.179474,231.619705 473.540161,231.732239 
	C485.177612,232.121979 485.173676,232.239548 485.175018,243.862701 
	C485.175873,251.350616 485.175873,251.350616 477.287964,251.342651 
	C469.375214,251.334671 469.366547,251.334656 469.354126,259.201569 
	C469.344635,265.197388 469.229370,271.196960 469.398865,277.188141 
	C469.608978,284.614441 471.676086,286.808441 479.143616,286.554321 
	C484.119415,286.385010 485.351898,288.286865 485.268951,292.938995 
	C485.073059,303.927582 485.052368,304.412476 474.055206,305.126312 
	C466.782684,305.598419 459.419952,306.053558 452.351624,303.228668 
	C445.310883,300.414825 441.815308,295.637878 441.668610,287.989502 
	C441.582428,283.494080 441.635651,278.995972 441.625458,273.999298 
z"/>
<path fill="#000000" opacity="1.000000" stroke="none" 
	d="
M316.049011,231.665833 
	C321.200165,231.669342 325.861420,231.791214 330.513489,231.636703 
	C333.827148,231.526657 335.344269,232.643250 335.329651,236.182129 
	C335.241577,257.472290 335.271484,278.763031 335.312683,300.053497 
	C335.318115,302.861664 334.431915,304.412323 331.314056,304.361877 
	C324.496155,304.251587 317.674377,304.244659 310.856262,304.341278 
	C307.792816,304.384735 306.768982,302.944702 306.774658,300.086639 
	C306.816986,278.796143 306.803680,257.505585 306.809326,236.215027 
	C306.811188,229.101486 312.306519,232.541580 316.049011,231.665833 
z"/>
<path fill="#000000" opacity="1.000000" stroke="none" 
	d="
M67.756660,263.890198 
	C70.737213,261.171082 73.852264,260.341064 77.236542,261.841156 
	C80.862099,263.448212 81.725639,261.753448 81.647354,258.564423 
	C81.618782,257.400726 81.651825,256.235596 81.651230,255.071136 
	C81.646568,246.002274 82.428520,245.412064 91.876846,247.360550 
	C92.411545,249.754761 92.672493,252.250778 93.525047,254.525009 
	C95.228226,259.068329 99.815895,261.500977 104.792427,260.858948 
	C109.581520,260.241119 112.836586,256.957642 113.713104,252.104767 
	C114.036850,250.312378 112.832863,247.599167 115.589676,247.025513 
	C118.820435,246.353210 122.221756,246.135330 125.451530,247.114380 
	C126.921951,247.560089 126.862907,249.183548 126.803101,250.544708 
	C126.131340,265.832306 119.577438,278.104248 107.189682,286.912323 
	C103.431358,289.584625 102.208855,292.314453 102.231850,296.711395 
	C102.310692,311.787415 104.191788,310.118744 89.199448,310.189453 
	C81.627533,310.225189 81.631721,310.190125 81.632919,302.434845 
	C81.633995,295.448029 81.640991,288.461090 81.608269,281.474426 
	C81.599060,279.507599 81.796547,277.454132 80.007050,275.601593 
	C75.679085,276.871521 70.953583,278.637421 67.468620,273.932648 
	C65.173195,270.833801 65.166191,267.431580 67.756660,263.890198 
z"/>
<path fill="#000000" opacity="1.000000" stroke="none" 
	d="
M71.570930,279.470093 
	C79.015152,279.586456 78.990089,279.586304 78.948120,286.665527 
	C78.911629,292.819794 78.852173,298.976227 78.972527,305.128326 
	C79.047760,308.973999 77.454056,310.535675 73.574440,310.261658 
	C70.098480,310.016174 66.587578,310.098358 63.099831,310.234436 
	C59.667126,310.368408 57.666878,308.567596 58.285500,305.483276 
	C60.423126,294.825439 55.753761,288.313934 47.492458,281.847382 
	C38.301933,274.653503 34.594913,263.601532 33.673351,251.866165 
	C33.369080,247.991501 34.770966,246.395523 38.751358,246.644104 
	C42.837399,246.899292 46.951771,246.700699 52.211433,246.700699 
	C48.990570,240.786545 46.749718,235.389542 53.027008,231.626724 
	C56.169678,229.742905 59.838367,229.966629 62.800266,232.572662 
	C65.921440,235.318848 65.852707,238.218597 62.756798,245.525482 
	C65.339111,247.639847 68.430779,246.586151 71.247986,246.643829 
	C78.739410,246.797226 79.515915,247.526413 78.841255,254.976334 
	C78.737915,256.117493 78.778008,257.326691 77.783104,258.181641 
	C68.673279,258.802460 64.413536,261.338623 63.399311,266.742584 
	C62.277851,272.717926 64.729866,276.698761 71.570930,279.470093 
z"/>
<path fill="#000000" opacity="1.000000" stroke="none" 
	d="
M111.244888,250.061066 
	C110.035233,256.392090 106.688026,259.132904 101.806511,258.207489 
	C96.698418,257.239136 94.954346,253.429031 95.996696,245.185699 
	C93.880142,243.594925 91.312080,244.227417 88.930283,244.184402 
	C81.493713,244.050140 81.412399,244.033112 81.665421,236.604553 
	C81.703911,235.474655 81.901627,234.350189 82.016808,233.303955 
	C92.449219,231.297028 96.668869,227.919937 96.607643,221.788223 
	C96.544449,215.458847 92.191811,212.111755 82.521080,210.955917 
	C80.221809,203.340088 81.672951,201.673523 89.190346,203.374603 
	C108.143456,207.663422 120.134857,219.322510 125.495743,237.886536 
	C127.093140,243.418076 126.363342,244.172302 120.488373,244.241318 
	C117.371498,244.277908 114.196800,243.725525 111.281876,244.734192 
	C109.779404,246.514053 111.390076,248.067001 111.244888,250.061066 
z"/>
<path fill="#000000" opacity="1.000000" stroke="none" 
	d="
M34.672535,239.716217 
	C39.484226,220.270584 51.355198,208.297760 70.414886,203.511307 
	C78.105453,201.579987 78.832115,202.153107 78.972176,209.840637 
	C79.001900,211.471558 78.687447,213.199936 80.210861,215.009445 
	C84.910629,213.394241 89.903000,212.609146 93.033302,218.072357 
	C94.664642,220.919464 94.231277,223.945724 92.168709,226.503113 
	C88.914978,230.537506 84.691544,230.165771 80.404305,228.579437 
	C78.229439,230.508881 78.472099,232.860825 78.609268,235.156418 
	C79.173172,244.593567 77.679070,245.768875 68.067047,243.396957 
	C66.481918,231.332825 62.933670,226.748474 55.980705,227.781311 
	C49.122406,228.800079 45.761402,234.285583 46.824257,243.062393 
	C43.536278,245.142487 39.826714,244.105270 36.318207,243.988251 
	C33.833714,243.905396 34.480473,241.736832 34.672535,239.716217 
z"/>
<path fill="#000000" opacity="1.000000" stroke="none" 
	d="
M306.765503,214.016022 
	C306.797546,204.667648 306.797546,204.665176 315.723358,204.665604 
	C320.873901,204.665863 326.026093,204.756073 331.174347,204.650024 
	C334.126038,204.589233 335.424347,205.756470 335.325775,208.759445 
	C335.195007,212.742767 335.241058,216.733276 335.275360,220.720139 
	C335.296753,223.208069 334.178070,224.348343 331.662231,224.331284 
	C324.684540,224.283951 317.705902,224.271667 310.728485,224.335999 
	C308.018524,224.360962 306.729218,223.208923 306.789551,220.482071 
	C306.833618,218.489655 306.777283,216.495026 306.765503,214.016022 
z"/>
<path fill="#000000" opacity="1.000000" stroke="none" 
	d="
M76.001900,320.591980 
	C84.613068,320.591827 92.724617,320.591827 100.802246,320.591827 
	C101.124458,325.374176 98.534218,328.912292 93.796158,329.089661 
	C84.672607,329.431152 75.509338,329.476685 66.396942,328.994629 
	C62.447113,328.785675 59.535439,326.080170 59.032951,321.085358 
	C64.659004,320.144257 70.105637,320.789459 76.001900,320.591980 
z"/>
<path fill="#000000" opacity="1.000000" stroke="none" 
	d="
M93.865219,317.879456 
	C83.414742,317.861847 73.442970,317.929901 63.475559,317.752899 
	C61.479156,317.717468 58.226704,318.595093 58.454086,314.737732 
	C58.661724,311.215363 61.549065,311.878876 63.756222,311.868225 
	C74.729843,311.815247 85.704384,311.788574 96.677269,311.893097 
	C98.741737,311.912750 101.862160,310.734406 102.130264,314.391479 
	C102.417305,318.307129 99.169334,317.565277 96.837738,317.844116 
	C96.017326,317.942261 95.176804,317.872192 93.865219,317.879456 
z"/>
<path fill="#000000" opacity="1.000000" stroke="none" 
	d="
M28.194498,291.143799 
	C24.272141,293.382568 20.695971,295.468140 17.065361,297.454224 
	C14.921124,298.627167 12.782788,298.578552 11.428874,296.298096 
	C10.029048,293.940338 10.651740,291.705872 12.930961,290.269318 
	C16.432100,288.062622 20.085142,286.098297 23.648674,283.988800 
	C26.043707,282.570984 28.340908,282.114624 30.217331,284.700500 
	C32.183998,287.410736 30.748428,289.316742 28.194498,291.143799 
z"/>
<path fill="#000000" opacity="1.000000" stroke="none" 
	d="
M21.515862,217.458572 
	C24.117916,218.983292 26.446680,220.254639 28.678650,221.677811 
	C30.678841,222.953186 31.837166,224.704376 30.603376,227.127151 
	C29.270124,229.745224 26.918825,230.014557 24.661961,228.863663 
	C20.684595,226.835388 16.849268,224.515701 13.033700,222.188141 
	C10.953871,220.919388 10.074642,218.959320 11.296283,216.658157 
	C12.662044,214.085510 14.918817,214.042130 17.284695,215.116745 
	C18.637125,215.731049 19.898220,216.546432 21.515862,217.458572 
z"/>
<path fill="#000000" opacity="1.000000" stroke="none" 
	d="
M135.190918,292.882202 
	C133.886246,292.097809 132.869247,291.540710 131.908630,290.899139 
	C129.697159,289.422180 128.746307,287.383698 130.081375,284.953522 
	C131.466660,282.431885 133.643494,282.341492 136.016830,283.698242 
	C139.745499,285.829712 143.538193,287.853699 147.211609,290.075592 
	C149.396820,291.397308 150.608658,293.417969 149.253220,295.937378 
	C147.903625,298.445923 145.713516,298.656433 143.319580,297.359528 
	C140.706833,295.944092 138.108704,294.501709 135.190918,292.882202 
z"/>
<path fill="#000000" opacity="1.000000" stroke="none" 
	d="
M120.330902,195.084167 
	C118.408447,198.443710 116.722267,201.504089 114.864670,204.456619 
	C113.514572,206.602509 111.647736,208.049927 109.048759,206.438080 
	C106.680870,204.969543 106.317818,202.805832 107.662659,200.395599 
	C109.525246,197.057495 111.422890,193.738907 113.312454,190.415878 
	C114.830681,187.745911 116.732719,185.535629 120.059776,187.493835 
	C123.528595,189.535477 122.132271,192.209335 120.330902,195.084167 
z"/>
<path fill="#000000" opacity="1.000000" stroke="none" 
	d="
M145.169678,260.335754 
	C143.708557,260.307831 142.712204,260.342987 141.730118,260.240814 
	C139.486435,260.007446 137.988235,258.838470 137.870041,256.499268 
	C137.739441,253.914658 139.277832,252.307343 141.689606,252.191147 
	C146.460159,251.961334 151.255661,251.936356 156.026184,252.151443 
	C158.403366,252.258652 160.100464,253.876480 159.907562,256.424072 
	C159.720932,258.888550 158.011337,260.218201 155.546097,260.284271 
	C152.246262,260.372681 148.942810,260.325439 145.169678,260.335754 
z"/>
<path fill="#000000" opacity="1.000000" stroke="none" 
	d="
M130.050018,227.389099 
	C129.434708,225.545700 129.249939,223.832977 130.525970,222.847260 
	C135.008041,219.384872 139.822113,216.406998 145.218079,214.574112 
	C146.728790,214.060944 148.182373,214.779495 149.044540,216.253342 
	C149.854401,217.637711 150.320236,219.351929 149.085297,220.439346 
	C144.449722,224.521210 139.363083,227.936035 133.184799,229.251068 
	C131.972382,229.509125 130.964462,228.714294 130.050018,227.389099 
z"/>
<path fill="#000000" opacity="1.000000" stroke="none" 
	d="
M40.385910,195.545532 
	C39.676868,194.030746 38.970135,192.869339 38.686440,191.612457 
	C38.237888,189.625214 39.013596,187.983688 40.910721,187.128403 
	C42.590965,186.370865 44.415203,186.637497 45.380276,188.150330 
	C48.128113,192.457779 50.775169,196.845810 53.157421,201.362686 
	C54.196762,203.333328 53.234016,205.216003 51.300026,206.438187 
	C49.162212,207.789154 47.326279,206.996460 46.136662,205.224731 
	C44.115631,202.214737 42.413876,198.990372 40.385910,195.545532 
z"/>
<path fill="#000000" opacity="1.000000" stroke="none" 
	d="
M84.311996,182.285767 
	C84.310776,186.394287 84.268768,190.037796 84.309868,193.680359 
	C84.340004,196.350830 83.356888,198.369781 80.541054,198.597626 
	C77.331093,198.857361 76.154915,196.532043 76.011421,193.844269 
	C75.799858,189.881393 75.797432,185.895737 75.950027,181.929169 
	C76.051300,179.296783 76.970825,176.866974 80.189400,176.821777 
	C83.450844,176.775955 84.317909,179.009949 84.311996,182.285767 
z"/>
</svg>